<?xml version="1.0" encoding="UTF-8"?>
<svg id="Layer_2" xmlns="http://www.w3.org/2000/svg" viewBox="0 0 165.8 41.25">
  <defs>
    <style>
      .cls-1 {
        fill: #0b58ff;
      }
    </style>
  </defs>
  <g id="Layer_1-2" data-name="Layer_1">
    <g>
      <path class="cls-1" d="M74.65,6.18c-1.59,1.72-1.82,3.89-1.61,6.08.25,2.5.94,6.06,1.69,9.56l-22.08,19.44-9.89-24.48,10.15-3.01L57.37,0c10.89.09,21.21.51,21.21.51v.83l-3.94,4.84Z"/>
      <path class="cls-1" d="M165.8,37.62l-11.02-.07c-14.11,0-16.42-10.28-15.24-17.92.32-2.06,1.73-7.79,2.82-13.13l9.71-2.87,9.89,24.48,3.84,9.5Z"/>
      <path class="cls-1" d="M8.94,35.11l-5.1-.03L0,25.58,22.08,6.14c1,4.65,2.09,9.18,2.37,10.96,1.21,7.78-1.03,18.02-15.5,18.02Z"/>
      <path class="cls-1" d="M122.76,10.81l-4.45,13.77-10.15,3.01-9.71,2.87c.56-2.75,1.04-5.41,1.24-7.39.21-2.19-.02-4.36-1.61-6.08l-3.94-4.84v-.83s12.85-.52,24.92-.52c1.23,0,2.47,0,3.7.01Z"/>
    </g>
  </g>
</svg>