<?xml version="1.0" encoding="UTF-8"?>
<svg id="Layer_2" xmlns="http://www.w3.org/2000/svg" viewBox="0 0 149.02 149.02">
  <defs>
    <style>
      .cls-1 {
        fill: #0b58ff;
      }

      .cls-2 {
        fill: #0b58ff;
      }
    </style>
  </defs>
  <g id="Layer_1-2" data-name="Layer_1">
    <g>
      <g>
        <path class="cls-2" d="M74.51,144.02c-38.32,0-69.5-31.18-69.5-69.5,0-38.32,31.18-69.5,69.5-69.5,38.32,0,69.5,31.18,69.5,69.5,0,38.32-31.18,69.5-69.5,69.5ZM74.51,6.91c-37.28,0-67.61,30.33-67.61,67.61,0,37.28,30.33,67.61,67.61,67.61,37.28,0,67.61-30.33,67.61-67.61,0-37.28-30.33-67.61-67.61-67.61Z"/>
        <path class="cls-2" d="M74.51,149.02C33.43,149.02,0,115.6,0,74.51,0,33.43,33.43,0,74.51,0s74.51,33.43,74.51,74.51c0,41.09-33.43,74.51-74.51,74.51ZM74.51,1.86c-40.06,0-72.65,32.59-72.65,72.65,0,40.06,32.59,72.65,72.65,72.65,40.06,0,72.65-32.59,72.65-72.65,0-40.06-32.59-72.65-72.65-72.65Z"/>
      </g>
      <g>
        <path class="cls-1" d="M39.79,43.1c-1.06-.03-2.14-.62-3.26-1.79l-5.01-5.22,1.88-1.81,4.97,5.17c.59.61,1.13.96,1.61,1.05.48.09.94-.08,1.38-.5.46-.45.66-.91.57-1.39-.08-.48-.42-1.02-1-1.63l-4.97-5.17,1.88-1.81,5.01,5.22c1.13,1.18,1.69,2.29,1.68,3.33-.01,1.04-.55,2.07-1.6,3.08-1.04,1-2.08,1.48-3.14,1.45Z"/>
        <path class="cls-1" d="M41.18,27.48l2.38-1.44,7.19,5.29-.21.13-4.28-7.06,1.98-1.2,6.09,10.04-2.38,1.44-7.15-5.22.22-.13,4.24,6.98-1.99,1.21-6.09-10.04Z"/>
        <path class="cls-1" d="M52.16,21.36l3.58-1.21c1.5-.51,2.82-.44,3.96.2,1.13.64,2.02,1.9,2.65,3.76.63,1.88.69,3.41.17,4.61-.52,1.2-1.58,2.07-3.16,2.6l-3.44,1.16-3.76-11.12ZM60.11,27.75c.22-.67.12-1.6-.28-2.79-.41-1.21-.9-2.01-1.49-2.4-.58-.39-1.25-.45-2.02-.19l-.97.33,2.29,6.77.98-.33c.76-.26,1.25-.72,1.47-1.39Z"/>
        <path class="cls-1" d="M64.38,17.76l8.38-.87.23,2.25-5.79.6.26,2.47,5.38-.56.23,2.18-5.38.56.26,2.52,5.74-.6.23,2.25-8.33.87-1.22-11.68Z"/>
        <path class="cls-1" d="M76.54,16.9l4.6.49c1.26.13,2.21.55,2.85,1.26.64.71.89,1.72.75,3.05-.14,1.28-.6,2.2-1.4,2.75-.8.55-1.85.76-3.16.62l-1.87-.2-.42,3.98-2.59-.28,1.24-11.68ZM81.56,22.6c.31-.23.49-.62.55-1.18.07-.62-.03-1.06-.28-1.33-.26-.27-.67-.44-1.24-.5l-1.68-.18-.35,3.26,1.68.18c.57.06,1.01-.02,1.32-.25ZM79.44,23.83l2.61.28,2.24,5.43-2.82-.3-2.03-5.41Z"/>
        <path class="cls-1" d="M89,18.71l4.61,1.56c1.09.37,1.84.91,2.25,1.64.41.72.45,1.57.13,2.54-.22.65-.6,1.16-1.13,1.52-.53.36-1.18.47-1.94.32l.08-.23c.77.31,1.29.77,1.57,1.4s.29,1.3.04,2.05c-.34,1-.91,1.67-1.72,2.01-.81.33-1.8.3-2.97-.09l-4.68-1.58,3.76-11.13ZM91.47,29.33c.33-.12.56-.4.71-.84.16-.47.15-.84-.02-1.13-.17-.28-.49-.5-.96-.66l-1.93-.65-.87,2.58,1.85.62c.49.17.9.19,1.23.07ZM92.85,24.68c.28-.15.49-.43.63-.84.15-.44.14-.79,0-1.05-.15-.26-.46-.47-.92-.63l-1.77-.6-.84,2.5,1.82.61c.45.15.81.15,1.1,0Z"/>
        <path class="cls-1" d="M100.84,23.23l2.23,1.35-4.82,7.97,4.91,2.97-1.26,2.08-7.14-4.31,6.07-10.05Z"/>
        <path class="cls-1" d="M104.1,38.22c-.03-1.06.51-2.17,1.62-3.35l4.95-5.27,1.9,1.79-4.91,5.22c-.58.62-.91,1.17-.97,1.66-.06.49.13.94.57,1.36.47.44.94.61,1.41.5.47-.11,1-.47,1.57-1.08l4.91-5.22,1.9,1.78-4.95,5.27c-1.12,1.19-2.2,1.81-3.24,1.85s-2.09-.44-3.16-1.44c-1.05-.99-1.59-2.01-1.61-3.06Z"/>
      </g>
      <g>
        <path class="cls-1" d="M31.08,89.02l1.93,4.47c.46,1.06.56,1.98.29,2.77-.26.79-.86,1.39-1.8,1.79-.63.27-1.26.34-1.89.19-.62-.15-1.14-.56-1.54-1.23l.22-.1c.29.78.29,1.48.01,2.1s-.77,1.09-1.49,1.4c-.97.42-1.85.44-2.64.06-.79-.38-1.43-1.13-1.92-2.26l-1.96-4.53,10.78-4.66ZM24.85,97.97c.31.16.67.15,1.1-.03.45-.2.73-.45.82-.77.09-.32.04-.7-.15-1.16l-.81-1.87-2.5,1.08.77,1.79c.21.48.46.79.77.96ZM29.22,95.89c.3.11.65.08,1.04-.09.42-.18.68-.42.77-.71.09-.29.04-.66-.15-1.1l-.74-1.71-2.43,1.05.76,1.76c.19.43.43.7.74.81Z"/>
        <path class="cls-1" d="M30.39,104.35l4.07-7.39,1.62,2.3-3.53,6.02-.75-1.06,6.86-1.3,1.57,2.23-8.34,1.33-3.4,2.4-1.5-2.13,3.4-2.4Z"/>
        <path class="cls-1" d="M44.04,122.68c-.41-.88-.42-1.86-.04-2.96l2.57.97c-.15.52-.16.99,0,1.4.15.41.48.76.99,1.05.44.25.84.36,1.21.32.37-.04.65-.23.84-.56.17-.29.22-.57.16-.83-.06-.26-.26-.55-.6-.86l-1.29-1.22c-.76-.71-1.24-1.43-1.44-2.16-.2-.73-.05-1.52.45-2.39.35-.62.82-1.07,1.41-1.36.58-.29,1.23-.4,1.94-.33s1.44.32,2.19.75c1.1.63,1.82,1.38,2.17,2.26.35.88.34,1.82-.03,2.83l-2.52-.95c.17-.43.2-.86.1-1.27-.1-.41-.39-.75-.87-1.03-.43-.25-.82-.34-1.18-.28-.35.06-.63.26-.81.59-.17.29-.21.58-.12.86.08.28.31.58.66.91l1.31,1.23c.75.71,1.2,1.42,1.37,2.13s0,1.49-.48,2.34c-.56.97-1.33,1.52-2.34,1.67-1,.14-2.09-.13-3.27-.8-1.15-.66-1.93-1.43-2.34-2.31Z"/>
        <path class="cls-1" d="M54.75,127.39c-.44-1.21-.37-2.76.24-4.66.6-1.9,1.43-3.21,2.49-3.95s2.3-.87,3.73-.42c1.43.45,2.36,1.28,2.81,2.49.44,1.21.37,2.76-.24,4.66-.6,1.9-1.43,3.21-2.49,3.95-1.06.73-2.3.87-3.73.42-1.43-.45-2.36-1.28-2.81-2.49ZM59.91,127.24c.51-.5.95-1.35,1.33-2.53.38-1.19.5-2.13.37-2.83-.13-.7-.49-1.15-1.1-1.34-.6-.19-1.16-.04-1.67.47-.51.5-.95,1.35-1.33,2.53-.38,1.19-.5,2.13-.37,2.83.13.7.49,1.15,1.1,1.34.6.19,1.16.04,1.67-.47Z"/>
        <path class="cls-1" d="M66.65,130.92c-.67-.82-.93-2.03-.79-3.63l.65-7.21,2.6.23-.65,7.14c-.08.85.01,1.48.26,1.9s.68.66,1.29.71c.64.06,1.12-.1,1.42-.48.31-.38.5-.98.57-1.82l.65-7.14,2.6.23-.65,7.21c-.15,1.63-.62,2.78-1.41,3.45-.79.67-1.92.94-3.38.81-1.43-.13-2.49-.6-3.16-1.42Z"/>
        <path class="cls-1" d="M79.66,122.91l-3.29.39-.29-2.42,9.16-1.1.29,2.42-3.29.39,1.11,9.24-2.57.31-1.11-9.24Z"/>
        <path class="cls-1" d="M86.15,119.53l2.47-.84,1.5,4.39,2.88-.98-1.5-4.39,2.47-.84,3.8,11.11-2.47.84-1.53-4.46-2.88.98,1.53,4.46-2.47.84-3.8-11.11Z"/>
        <path class="cls-1" d="M94.94,116.48l2.01-1.22,5.79,8.45-.21.13-2.62-6.73,1.49-.91,4.88,5.36-.21.13-4.86-9.01,1.96-1.19,5.35,10.49-2.63,1.6-5.06-5.99.62-.38,3.01,7.24-2.67,1.62-6.86-9.57Z"/>
        <path class="cls-1" d="M105.59,109.2l2.32-2.19,10.51,6.23-1.87,1.76-9.09-5.79.31-.3,5.25,9.41-1.81,1.71-5.62-10.84ZM109.34,115.23l4.28-4.04,1.53,1.62-4.28,4.04-1.53-1.62Z"/>
        <path class="cls-1" d="M109.77,105.38l1.6-2.23,9.96,3.82-.5.7-6.83-8.2,1.54-2.15,7.57,9.6-1.81,2.53-11.53-4.07Z"/>
        <path class="cls-1" d="M115.85,96.6l3.34-7.73,2.08.9-2.31,5.34,2.28.99,2.15-4.96,2.01.87-2.15,4.96,2.33,1.01,2.29-5.29,2.08.9-3.32,7.69-10.78-4.66Z"/>
      </g>
      <g>
        <path class="cls-2" d="M82.9,96.63l-3.86-.02c-.21,0-.4-.13-.48-.32l-2.9-7.19c-.08-.21-.03-.44.14-.59l17.29-15.22c.3-.26.77-.11.85.28.77,3.52,1.55,6.82,1.77,8.19,1,6.43-.86,14.88-12.8,14.88Z"/>
        <path class="cls-2" d="M75.19,96.15l-8.33-.05c-11.65,0-13.56-8.49-12.58-14.8.26-1.66,1.37-6.22,2.26-10.53.04-.19.18-.34.36-.39l7.27-2.15c.26-.08.53.05.63.3l7.99,19.78,2.88,7.13c.14.34-.12.71-.48.71Z"/>
        <path class="cls-2" d="M76.03,53.08l-3.38,10.43c-.05.17-.18.29-.35.34l-8.12,2.41-7.19,2.13c-.37.11-.73-.22-.65-.6.39-1.97.71-3.83.85-5.26.18-1.81-.01-3.6-1.33-5.02l-3.13-3.86c-.07-.09-.12-.21-.12-.33,0-.28.22-.51.5-.52,2.21-.08,11.4-.4,20.08-.4.78,0,1.57,0,2.35,0,.35,0,.6.35.49.68Z"/>
        <path class="cls-2" d="M93.16,58.02c-1.32,1.42-1.51,3.21-1.33,5.02.2,2,.74,4.81,1.34,7.6.04.18-.02.37-.16.5l-17.46,15.37c-.27.24-.69.14-.82-.2l-7.68-19.01c-.12-.28.04-.6.33-.69l7.58-2.25c.17-.05.29-.18.35-.34l3.48-10.74c.07-.22.27-.36.5-.36,7.57.07,14.72.32,16.64.39.28.01.5.24.5.52,0,.12-.04.23-.12.33l-3.13,3.86Z"/>
      </g>
    </g>
  </g>
</svg>